# xmcd
#
# Track frame offsets: 
#        150
#        16520
#        32185
#        50434
#        68879
#        82438
#        100646
#        114835
#        128851
#        148505
#        163623
#        180558
#        196823
#        214489
#
# Disc length: 3077 seconds
#
# Revision: 0
# Processed by: cddbd v1.5.2PL0 Copyright (c) Steve Scherf et al.
# Submitted via: ExactAudioCopy v0.95b3
#
DISCID=be0c030e
DTITLE=Big Al Anderson - Pawn Shop Guitars
DYEAR=2007
DGENRE=Country
TTITLE0=Something In The Water
TTITLE1=Poor Me
TTITLE2=Pawn Shop Guitars
TTITLE3=Shake That Thing
TTITLE4=Tell Me Something I Don't Know
TTITLE5=Just A Thought
TTITLE6=Drinkin' On The Weekend
TTITLE7=World Came Tumblin' Down
TTITLE8=Bigger Wheel
TTITLE9=Have It Your Way
TTITLE10=Airstream
TTITLE11=What Did I Do
TTITLE12=Why Do I Feel Like Runnin'
TTITLE13=Animals
EXTD=
EXTT0=
EXTT1=
EXTT2=
EXTT3=
EXTT4=
EXTT5=
EXTT6=
EXTT7=
EXTT8=
EXTT9=
EXTT10=
EXTT11=
EXTT12=
EXTT13=
PLAYORDER=
